<svg width="40" height="40" viewBox="0 0 40 40" fill="none" xmlns="http://www.w3.org/2000/svg">
<path d="M14.4615 8.92307H25.5385C27.0074 8.92307 28.4161 9.50658 29.4547 10.5452C30.4934 11.5839 31.0769 12.9926 31.0769 14.4615V25.5385C31.0769 27.0073 30.4934 28.4161 29.4547 29.4547C28.4161 30.4934 27.0074 31.0769 25.5385 31.0769H14.4615C12.9927 31.0769 11.5839 30.4934 10.5453 29.4547C9.5066 28.4161 8.92308 27.0073 8.92308 25.5385V14.4615C8.92308 12.9926 9.5066 11.5839 10.5453 10.5452C11.5839 9.50658 12.9927 8.92307 14.4615 8.92307V8.92307Z" stroke="white" stroke-width="2" stroke-linecap="round" stroke-linejoin="round"/>
<path d="M24.4348 19.3025C24.5715 20.2244 24.414 21.1659 23.9848 21.9931C23.5556 22.8203 22.8764 23.4911 22.044 23.9101C21.2115 24.3291 20.2681 24.475 19.348 24.3269C18.4279 24.1788 17.5779 23.7444 16.9189 23.0854C16.2599 22.4264 15.8255 21.5764 15.6774 20.6563C15.5294 19.7362 15.6752 18.7928 16.0942 17.9604C16.5132 17.1279 17.184 16.4488 18.0112 16.0196C18.8385 15.5903 19.78 15.4329 20.7018 15.5696C21.6422 15.709 22.5128 16.1472 23.185 16.8194C23.8572 17.4916 24.2953 18.3621 24.4348 19.3025Z" stroke="white" stroke-width="2" stroke-linecap="round" stroke-linejoin="round"/>
</svg>
