<svg width="12" height="16" viewBox="0 0 12 16" fill="none" xmlns="http://www.w3.org/2000/svg">
<path id="location" d="M5.99346 0C4.40341 0.00222089 2.87928 0.588617 1.7556 1.63045C0.631929 2.67228 0.000531139 4.08443 0 5.55694C0.017487 6.3085 0.176112 7.0515 0.468773 7.75268C2.11853 10.8735 3.77333 12.541 5.42409 15.6656C5.47646 15.7658 5.55826 15.8503 5.66012 15.9095C5.76198 15.9686 5.87977 16 6 16C6.12023 16 6.23802 15.9686 6.33988 15.9095C6.44174 15.8503 6.52354 15.7658 6.57591 15.6656C8.22969 12.5429 9.87744 10.8707 11.5312 7.75268C11.8246 7.0517 11.9833 6.30858 12 5.55694C11.9968 4.08309 11.3628 2.6705 10.2368 1.62885C9.11091 0.587211 7.58496 0.00147655 5.99346 0ZM5.99346 1.19058C6.6134 1.18899 7.22757 1.30078 7.80072 1.51957C8.37388 1.73837 8.89472 2.05984 9.33337 2.46554C9.77201 2.87124 10.1198 3.35317 10.3568 3.88368C10.5938 4.41418 10.7153 4.98283 10.7144 5.55694C10.686 6.16215 10.555 6.75942 10.3261 7.32692L6.0005 14.0493L1.67491 7.32692C1.44646 6.75931 1.31544 6.1621 1.28661 5.55694C1.28396 4.98348 1.40383 4.41519 1.63933 3.88481C1.87483 3.35444 2.22131 2.87247 2.6588 2.46662C3.0963 2.06078 3.61617 1.73908 4.18848 1.52008C4.76079 1.30108 5.37422 1.1891 5.99346 1.19058ZM5.99346 2.38116C5.31571 2.38245 4.65358 2.5697 4.09073 2.91934C3.52788 3.26898 3.08956 3.76531 2.83116 4.34555C2.57276 4.92578 2.50588 5.56395 2.63895 6.17938C2.77203 6.79481 3.09909 7.35987 3.57883 7.80323C4.05856 8.24659 4.66943 8.54831 5.33426 8.67028C5.99909 8.79226 6.68804 8.72899 7.31407 8.4885C7.9401 8.24801 8.47511 7.84109 8.8515 7.31913C9.2279 6.79717 9.42878 6.18362 9.42879 5.55597C9.42772 4.71312 9.06522 3.90516 8.421 3.30979C7.77678 2.71442 6.90359 2.38042 5.99346 2.38116ZM5.99346 3.57169C6.4175 3.57058 6.83235 3.68604 7.18551 3.90341C7.53866 4.12077 7.81423 4.43026 7.97733 4.79275C8.14043 5.15523 8.18373 5.55438 8.10174 5.93966C8.01974 6.32494 7.81615 6.67904 7.51673 6.9571C7.21732 7.23517 6.83554 7.42469 6.41974 7.5017C6.00393 7.57872 5.5728 7.53977 5.18093 7.38975C4.78905 7.23973 4.45406 6.98542 4.21835 6.65899C3.98264 6.33256 3.85682 5.94866 3.85682 5.55597C3.85669 5.296 3.91185 5.03854 4.01915 4.79832C4.12646 4.55809 4.2838 4.33983 4.48221 4.15592C4.68061 3.97201 4.91619 3.82606 5.1755 3.72646C5.4348 3.62686 5.71274 3.57556 5.99346 3.57544V3.57169Z" fill="white"/>
</svg>
