<svg width="44" height="44" viewBox="0 0 44 44" fill="none" xmlns="http://www.w3.org/2000/svg">
<path d="M42 38.8025V15.9641C42 14.2676 40.623 12.8318 38.9837 12.8318H28.5575C26.8526 12.8318 25.5412 14.2673 25.5412 15.9641V38.8678C25.5412 40.5643 26.9181 42 28.5575 42H38.9181C40.623 41.9344 41.9999 40.4989 41.9999 38.8023L42 38.8025ZM28.3607 37.6931L28.2952 17.0733H28.3607H39.1803H39.2459V37.6279H39.1803H28.3607V37.6931ZM35.1148 40.6295H32.164C31.705 40.6295 31.3772 40.238 31.3772 39.8466C31.3772 39.3899 31.7051 39.0636 32.164 39.0636L35.1148 39.0634C35.5737 39.0634 35.9016 39.4549 35.9016 39.8463C35.9016 40.238 35.5082 40.6295 35.1148 40.6295ZM15.7706 41.9345H23.705C23.1803 41.0209 22.8524 39.977 22.8524 38.8023V36.9099H19.9016L5.40988 36.9101V6.37187H27.7049V10.0912C27.9672 10.026 28.2951 10.026 28.6229 10.026H31.1149V5.19742C31.1149 3.89237 30.3281 2.71771 29.2132 2.26105C28.8198 2.13064 28.4264 2 27.9672 2H5.14764C4.68871 2 4.29507 2.06521 3.90169 2.26105C2.78705 2.71774 2 3.89237 2 5.19742V38.672C2 40.4338 3.37699 41.8695 5.14764 41.8695H10.6558L15.7706 41.9345ZM15.0493 38.6719H18.0002C18.4591 38.6719 18.7869 39.0634 18.7869 39.4548C18.7869 39.9115 18.4591 40.2377 18.0002 40.2377H15.0493C14.5904 40.2377 14.2626 39.8463 14.2626 39.4548C14.2624 39.0633 14.656 38.6719 15.0493 38.6719Z" fill="white"/>
</svg>
