<svg width="40" height="40" viewBox="0 0 40 40" fill="none" xmlns="http://www.w3.org/2000/svg">
<path d="M20.563 8C15.753 8 11 11.293 11 16.6146C11 19.9989 12.856 21.9219 13.981 21.9219C14.445 21.9219 14.712 20.5948 14.712 20.2205C14.712 19.7733 13.601 18.8216 13.601 16.9613C13.5863 16.0775 13.7477 15.2 14.0751 14.3823C14.4025 13.5647 14.8892 12.8242 15.5054 12.2062C16.1215 11.5881 16.8542 11.1055 17.6584 10.7878C18.4627 10.4702 19.3218 10.3242 20.183 10.3588C23.375 10.3588 25.738 12.2191 25.738 15.6373C25.738 18.1899 24.738 22.9782 21.505 22.9782C21.227 22.9899 20.9495 22.9442 20.689 22.844C20.4285 22.7438 20.1902 22.591 19.9883 22.3947C19.7863 22.1984 19.6248 21.9626 19.5133 21.7012C19.4018 21.4398 19.3425 21.158 19.339 20.8727C19.339 19.0554 20.577 17.2956 20.577 15.4209C20.577 12.2417 16.177 12.815 16.177 16.6608C16.149 17.4975 16.3027 18.3302 16.627 19.0985C15.98 21.9536 14.658 26.2087 14.658 29.1489C14.658 30.0576 14.785 30.9518 14.869 31.8605C15.028 32.043 14.949 32.0235 15.192 31.9323C17.555 28.6156 17.47 27.9665 18.539 23.6253C18.8945 24.171 19.3786 24.6157 19.9464 24.9184C20.5142 25.221 21.1473 25.3717 21.787 25.3564C26.764 25.3544 29 20.3784 29 15.8967C29 11.1197 24.978 8 20.563 8Z" fill="white"/>
</svg>
