<svg width="16" height="16" fill="none" xmlns="http://www.w3.org/2000/svg"><path fill-rule="evenodd" clip-rule="evenodd" d="M8.002 0c2.207 0 4.207.895 5.657 2.345A7.975 7.975 0 0116 8.002a7.99 7.99 0 01-2.341 5.657A7.99 7.99 0 018.002 16c-2.21 0-4.211-.895-5.657-2.341A7.976 7.976 0 010 8.002c0-2.21.895-4.211 2.345-5.657A7.962 7.962 0 018.002 0zm4.773 3.229a6.693 6.693 0 00-1.62-1.2c.095.146.186.296.274.455.709 1.283 1.172 2.995 1.255 4.892h2.04a6.699 6.699 0 00-1.949-4.147zm0 9.546a6.719 6.719 0 001.95-4.151h-2.04c-.084 1.897-.547 3.609-1.256 4.892a6.294 6.294 0 01-.274.456 6.781 6.781 0 001.62-1.197zm-9.546 0c.475.476 1.018.88 1.62 1.197a6.287 6.287 0 01-.274-.456c-.709-1.283-1.172-2.995-1.26-4.892H1.28a6.72 6.72 0 001.949 4.151zm0-9.546a6.7 6.7 0 00-1.95 4.147h2.037c.087-1.897.55-3.609 1.26-4.892.087-.159.178-.31.273-.456a6.62 6.62 0 00-1.62 1.2zm5.395-1.862v6.01h2.813c-.084-1.68-.488-3.182-1.102-4.291-.475-.864-1.065-1.474-1.711-1.72zm0 7.257v6.01c.646-.246 1.236-.856 1.711-1.716.614-1.113 1.018-2.614 1.101-4.294H8.625zm-1.248 6.01v-6.01H4.567c.08 1.68.488 3.18 1.102 4.294.475.86 1.065 1.47 1.707 1.715zm0-7.258v-6.01c-.642.246-1.232.856-1.707 1.72-.614 1.11-1.022 2.61-1.102 4.29h2.81z" fill="#fff"/></svg>