<svg width="40" height="40" viewBox="0 0 40 40" fill="none" xmlns="http://www.w3.org/2000/svg">
<path d="M31.4997 14.5031C31.3639 14.0188 31.0963 13.5768 30.7236 13.2214C30.3509 12.866 29.8862 12.6097 29.3762 12.4782C27.5058 12 20.0009 12 20.0009 12C20.0009 12 12.4961 12 10.6257 12.4782C10.1156 12.6097 9.65098 12.866 9.27829 13.2214C8.9056 13.5768 8.63796 14.0188 8.5022 14.5031C8.15632 16.3216 7.98841 18.1665 8.00062 20.0142C7.98841 21.862 8.15632 23.7069 8.5022 25.5253C8.63838 26.0064 8.90666 26.4446 9.2797 26.7953C9.65273 27.1461 10.1172 27.3967 10.6257 27.5218C12.5007 28 20.0009 28 20.0009 28C20.0009 28 27.5058 28 29.3762 27.5218C29.8839 27.3967 30.3477 27.1465 30.7203 26.7965C31.0929 26.4464 31.3612 26.0091 31.4978 25.5289C31.8437 23.7104 32.0116 21.8655 31.9994 20.0178C32.0116 18.17 31.8437 16.3251 31.4978 14.5067L31.4997 14.5031ZM17.5465 23.4V16.6329L23.8195 20.016L17.5465 23.4Z" fill="white"/>
</svg>
